<?xml version="1.0" encoding="UTF-8"?>
<svg width="230px" height="311px" viewBox="0 0 230 311" version="1.1" xmlns="http://www.w3.org/2000/svg" xmlns:xlink="http://www.w3.org/1999/xlink">
    <title>java</title>
    <g id="Page-1" stroke="none" stroke-width="1" fill="none" fill-rule="evenodd">
        <g id="java" fill-rule="nonzero">
            <path d="M74.4582,240.3356 C74.4582,240.3356 62.5191,247.6028 82.76345,249.67911 C107.16015,252.79348 120.13755,252.27487 147.12975,247.08377 C147.12975,247.08377 154.39695,251.75542 164.25945,255.38923 C103.52675,281.34343 26.70245,253.83153 74.45815,240.3356 L74.4582,240.3356 Z M66.67177,206.5953 C66.67177,206.5953 53.69487,216.45773 73.93897,218.534 C100.41247,221.12976 121.17577,221.64837 156.99237,214.38137 C156.99237,214.38137 161.66423,219.57226 169.45027,222.1678 C96.25967,243.9694 14.24427,224.24411 66.67227,206.5953 L66.67177,206.5953 Z M209.93877,265.7708 C209.93877,265.7708 218.76326,273.03821 200.07623,278.7477 C165.29753,289.1295 54.21323,292.2438 23.06823,278.7477 C12.16763,274.07626 32.93098,267.3279 39.67873,266.2898 C46.4269,264.73272 50.06033,264.73272 50.06033,264.73272 C38.12193,256.42726 -29.35917,281.86222 15.80083,289.12942 C139.86183,309.37372 242.12183,280.30514 209.93783,265.77072 L209.93877,265.7708 Z M80.16777,171.2976 C80.16777,171.2976 23.58787,184.7937 59.92387,189.4654 C75.49637,191.5415 106.12217,191.0229 134.67197,188.94637 C158.03047,186.87006 181.38957,182.71743 181.38957,182.71743 C181.38957,182.71743 173.08411,186.35082 167.37397,189.98484 C109.75607,205.03784 -0.80903,198.28988 30.85497,182.71743 C57.84727,169.74013 80.16747,171.29763 80.16747,171.29763 L80.16777,171.2976 Z M181.38977,227.8775 C239.52697,197.7706 212.53487,168.7021 193.84767,172.3359 C189.17581,173.37395 187.0995,174.41221 187.0995,174.41221 C187.0995,174.41221 188.65679,171.29764 192.29018,170.25958 C229.14538,157.28228 258.21398,209.19048 180.35178,229.43478 C180.35178,229.43478 180.87039,228.91575 181.38983,227.87749 L181.38977,227.8775 Z M85.87807,309.8928 C141.93937,313.52661 227.58807,307.81649 229.66407,281.3434 C229.66407,281.3434 225.51165,291.7252 183.46597,299.511 C135.71017,308.3357 76.53497,307.29743 41.75597,301.58731 C41.75597,301.58731 49.02296,307.81646 85.87797,309.89277 L85.87807,309.8928 Z" id="_227268128" fill="#4E7896"></path>
            <path d="M146.092,-9.99999992e-06 C146.092,-9.99999992e-06 178.2752,32.70219 115.4659,82.01529 C65.1147,121.98449 104.0461,144.82409 115.4659,170.77819 C85.8781,144.30539 64.5957,120.94629 79.1299,99.14469 C100.4127,66.96149 159.0689,51.38929 146.092,-9.99999992e-06 L146.092,-9.99999992e-06 Z M129.4815,148.97699 C144.5345,166.10689 125.32867,181.67959 125.32867,181.67959 C125.32867,181.67959 163.74077,161.95429 146.09197,137.55719 C130.00007,114.19869 117.54217,102.77889 185.02307,63.84739 C185.02307,63.84739 78.61107,90.32089 129.48147,148.97709 L129.4815,148.97699 Z" id="_230367536" fill="#F58219"></path>
        </g>
    </g>
</svg>