<?xml version="1.0" encoding="UTF-8"?>
<svg width="230px" height="229px" viewBox="0 0 230 229" version="1.1" xmlns="http://www.w3.org/2000/svg" xmlns:xlink="http://www.w3.org/1999/xlink">
    <title>python</title>
    <defs>
        <linearGradient x1="13.3913165%" y1="11.6996305%" x2="79.2931931%" y2="78.4532626%" id="linearGradient-1">
            <stop stop-color="#387EB8" offset="0%"></stop>
            <stop stop-color="#366994" offset="100%"></stop>
        </linearGradient>
        <linearGradient x1="19.4875508%" y1="20.315846%" x2="90.266417%" y2="88.7730019%" id="linearGradient-2">
            <stop stop-color="#FFE052" offset="0%"></stop>
            <stop stop-color="#FFC331" offset="100%"></stop>
        </linearGradient>
    </defs>
    <g id="Page-1" stroke="none" stroke-width="1" fill="none" fill-rule="evenodd">
        <g id="python" fill-rule="nonzero">
            <path d="M113.796253,0 C55.5995629,0 59.2337393,25.3295637 59.2337393,25.3295637 L59.2986175,51.5707312 L114.834303,51.5707312 L114.834303,59.4495929 L37.2400508,59.4495929 C37.2400508,59.4495929 0,55.2108413 0,114.145823 C0,173.080792 32.5039468,170.990833 32.5039468,170.990833 L51.9025098,170.990833 L51.9025098,143.642718 C51.9025098,143.642718 50.8568777,111.020324 83.8874315,111.020324 C116.917981,111.020324 138.96897,111.020324 138.96897,111.020324 C138.96897,111.020324 169.915841,111.522404 169.915841,81.0025121 C169.915841,50.4826283 169.915841,30.5387284 169.915841,30.5387284 C169.915841,30.5387243 174.61443,0 113.796253,0 Z M83.173772,17.6460456 C88.6991658,17.6460456 93.1650051,22.1281589 93.1650051,27.6736878 C93.1650051,33.2192167 88.6991658,37.70133 83.173772,37.70133 C77.6483782,37.70133 73.1825388,33.2192167 73.1825388,27.6736878 C73.1825388,22.1281589 77.6483782,17.6460456 83.173772,17.6460456 Z" id="path8615" fill="url(#linearGradient-1)"></path>
            <path d="M116.20375,229 C174.400455,229 170.766262,203.670438 170.766262,203.670438 L170.701384,177.429273 L115.1657,177.429273 L115.1657,169.550412 L192.75995,169.550412 C192.75995,169.550412 230,173.789151 230,114.854166 C230,55.9192082 197.496054,58.0091666 197.496054,58.0091666 L178.097491,58.0091666 L178.097491,85.3572731 C178.097491,85.3572731 179.14314,117.979665 146.112571,117.979665 C113.082018,117.979665 91.0310292,117.979665 91.0310292,117.979665 C91.0310292,117.979665 60.0841585,117.477585 60.0841585,147.997495 C60.0841585,178.517363 60.0841585,198.461274 60.0841585,198.461274 C60.0841585,198.461274 55.3855697,229 116.20375,229 Z M146.82623,211.353956 C141.300834,211.353956 136.834997,206.871845 136.834997,201.326315 C136.834997,195.780784 141.300834,191.298673 146.82623,191.298673 C152.351626,191.298673 156.817463,195.780784 156.817463,201.326315 C156.817463,206.871845 152.351626,211.353956 146.82623,211.353956 Z" id="path8620" fill="url(#linearGradient-2)"></path>
        </g>
    </g>
</svg>